STARTFONT 2.1
FONT STV5730
SIZE 18 72 72
FONTBOUNDINGBOX 12 18 0 -2
STARTPROPERTIES 8
DEFAULT_CHAR 128344
FACE_NAME "STV5730"
FONT_ASCENT 16
FONT_DESCENT 2
PIXEL_SIZE 18
POINT_SIZE 180
RESOLUTION_X 72
RESOLUTION_Y 72
ENDPROPERTIES
CHARS 128
STARTCHAR uni0030
ENCODING 48
SWIDTH 666 0
DWIDTH 12 0
BBX 12 18 0 -2
BITMAP
0000
0000
1F80
3FC0
70E0
6060
6060
6060
6060
6060
6060
6060
6060
70E0
3FC0
1F80
0000
0000
ENDCHAR
STARTCHAR uni0031
ENCODING 49
SWIDTH 666 0
DWIDTH 12 0
BBX 12 18 0 -2
BITMAP
0000
0000
0600
0600
1E00
1E00
0600
0600
0600
0600
0600
0600
0600
0600
1F80
1F80
0000
0000
ENDCHAR
STARTCHAR uni0032
ENCODING 50
SWIDTH 666 0
DWIDTH 12 0
BBX 12 18 0 -2
BITMAP
0000
0000
1F80
3FC0
70E0
6060
0060
00E0
1FC0
3F80
7000
6000
6000
6000
7FE0
7FE0
0000
0000
ENDCHAR
STARTCHAR uni0033
ENCODING 51
SWIDTH 666 0
DWIDTH 12 0
BBX 12 18 0 -2
BITMAP
0000
0000
1F80
3FC0
70E0
6060
0060
00E0
07C0
07C0
00E0
0060
6060
70E0
3FC0
1F80
0000
0000
ENDCHAR
STARTCHAR uni0034
ENCODING 52
SWIDTH 666 0
DWIDTH 12 0
BBX 12 18 0 -2
BITMAP
0000
0000
0780
0F80
1D80
3980
7180
6180
6180
6180
7FE0
7FE0
0180
0180
0180
0180
0000
0000
ENDCHAR
STARTCHAR uni0035
ENCODING 53
SWIDTH 666 0
DWIDTH 12 0
BBX 12 18 0 -2
BITMAP
0000
0000
7FE0
7FE0
6000
6000
7F80
7FC0
00E0
0060
0060
0060
6060
70E0
3FC0
1F00
0000
0000
ENDCHAR
STARTCHAR uni0036
ENCODING 54
SWIDTH 666 0
DWIDTH 12 0
BBX 12 18 0 -2
BITMAP
0000
0000
1F80
3FC0
70E0
6060
6000
6000
7F80
7FC0
60E0
6060
6060
70C0
3FC0
1F80
0000
0000
ENDCHAR
STARTCHAR uni0037
ENCODING 55
SWIDTH 666 0
DWIDTH 12 0
BBX 12 18 0 -2
BITMAP
0000
0000
7FE0
7FE0
0060
00C0
0180
0300
0600
0600
0600
0600
0600
0600
0600
0600
0000
0000
ENDCHAR
STARTCHAR uni0038
ENCODING 56
SWIDTH 666 0
DWIDTH 12 0
BBX 12 18 0 -2
BITMAP
0000
0000
1F80
3FC0
70E0
6060
6060
70E0
3FC0
3FC0
70E0
6060
6060
70E0
3FC0
1F80
0000
0000
ENDCHAR
STARTCHAR uni0039
ENCODING 57
SWIDTH 666 0
DWIDTH 12 0
BBX 12 18 0 -2
BITMAP
0000
0000
1F80
3FC0
70E0
6060
6060
7060
3FE0
1FE0
0060
0060
6060
70E0
3FC0
1F80
0000
0000
ENDCHAR
STARTCHAR uni002d
ENCODING 45
SWIDTH 666 0
DWIDTH 12 0
BBX 12 18 0 -2
BITMAP
0000
0000
0000
0000
0000
0000
0000
0000
3FC0
3FC0
0000
0000
0000
0000
0000
0000
0000
0000
ENDCHAR
STARTCHAR uni0020
ENCODING 32
SWIDTH 666 0
DWIDTH 12 0
BBX 12 18 0 -2
BITMAP
0000
0000
0000
0000
0000
0000
0000
0000
0000
0000
0000
0000
0000
0000
0000
0000
0000
0000
ENDCHAR
STARTCHAR uni0041
ENCODING 65
SWIDTH 666 0
DWIDTH 12 0
BBX 12 18 0 -2
BITMAP
0000
0000
0600
0F00
1F80
39C0
70E0
6060
6060
6060
7FE0
7FE0
6060
6060
6060
6060
0000
0000
ENDCHAR
STARTCHAR uni0042
ENCODING 66
SWIDTH 666 0
DWIDTH 12 0
BBX 12 18 0 -2
BITMAP
0000
0000
7F80
7FC0
60E0
6060
6060
60E0
7FC0
7FC0
60E0
6060
6060
60E0
7FC0
7F80
0000
0000
ENDCHAR
STARTCHAR uni0043
ENCODING 67
SWIDTH 666 0
DWIDTH 12 0
BBX 12 18 0 -2
BITMAP
0000
0000
1F80
3FC0
70E0
6060
6000
6000
6000
6000
6000
6000
6060
70E0
3FC0
1F80
0000
0000
ENDCHAR
STARTCHAR uni0044
ENCODING 68
SWIDTH 666 0
DWIDTH 12 0
BBX 12 18 0 -2
BITMAP
0000
0000
7F80
7FC0
60E0
6060
6060
6060
6060
6060
6060
6060
6060
60E0
7FC0
7F80
0000
0000
ENDCHAR
STARTCHAR uni0045
ENCODING 69
SWIDTH 666 0
DWIDTH 12 0
BBX 12 18 0 -2
BITMAP
0000
0000
7FE0
7FE0
6000
6000
6000
6000
7F80
7F80
6000
6000
6000
6000
7FE0
7FE0
0000
0000
ENDCHAR
STARTCHAR uni0046
ENCODING 70
SWIDTH 666 0
DWIDTH 12 0
BBX 12 18 0 -2
BITMAP
0000
0000
7FE0
7FE0
6000
6000
6000
6000
7F80
7F80
6000
6000
6000
6000
6000
6000
0000
0000
ENDCHAR
STARTCHAR uni0047
ENCODING 71
SWIDTH 666 0
DWIDTH 12 0
BBX 12 18 0 -2
BITMAP
0000
0000
1F80
3FC0
70E0
6060
6000
6000
63E0
63E0
6060
6060
6060
70E0
3FC0
1F80
0000
0000
ENDCHAR
STARTCHAR uni0048
ENCODING 72
SWIDTH 666 0
DWIDTH 12 0
BBX 12 18 0 -2
BITMAP
0000
0000
6060
6060
6060
6060
6060
6060
7FE0
7FE0
6060
6060
6060
6060
6060
6060
0000
0000
ENDCHAR
STARTCHAR uni0049
ENCODING 73
SWIDTH 666 0
DWIDTH 12 0
BBX 12 18 0 -2
BITMAP
0000
0000
1F80
1F80
0600
0600
0600
0600
0600
0600
0600
0600
0600
0600
1F80
1F80
0000
0000
ENDCHAR
STARTCHAR uni004a
ENCODING 74
SWIDTH 666 0
DWIDTH 12 0
BBX 12 18 0 -2
BITMAP
0000
0000
07E0
07E0
0180
0180
0180
0180
0180
0180
0180
0180
6180
7380
3F00
1E00
0000
0000
ENDCHAR
STARTCHAR uni004b
ENCODING 75
SWIDTH 666 0
DWIDTH 12 0
BBX 12 18 0 -2
BITMAP
0000
0000
6060
60E0
61C0
6380
6700
7E00
7C00
7C00
6E00
6700
6380
61C0
60E0
6060
0000
0000
ENDCHAR
STARTCHAR uni004c
ENCODING 76
SWIDTH 666 0
DWIDTH 12 0
BBX 12 18 0 -2
BITMAP
0000
0000
6000
6000
6000
6000
6000
6000
6000
6000
6000
6000
6000
6000
7FE0
7FE0
0000
0000
ENDCHAR
STARTCHAR uni004d
ENCODING 77
SWIDTH 666 0
DWIDTH 12 0
BBX 12 18 0 -2
BITMAP
0000
0000
6060
6060
70E0
79E0
7FE0
6F60
6660
6060
6060
6060
6060
6060
6060
6060
0000
0000
ENDCHAR
STARTCHAR uni004e
ENCODING 78
SWIDTH 666 0
DWIDTH 12 0
BBX 12 18 0 -2
BITMAP
0000
0000
6060
6060
6060
7060
7860
7C60
6E60
6760
63E0
61E0
60E0
6060
6060
6060
0000
0000
ENDCHAR
STARTCHAR uni004f
ENCODING 79
SWIDTH 666 0
DWIDTH 12 0
BBX 12 18 0 -2
BITMAP
0000
0000
1F80
3FC0
70E0
6060
6060
6060
6060
6060
6060
6060
6060
70E0
3FC0
1F80
0000
0000
ENDCHAR
STARTCHAR uni0050
ENCODING 80
SWIDTH 666 0
DWIDTH 12 0
BBX 12 18 0 -2
BITMAP
0000
0000
7F80
7FC0
60E0
6060
6060
60E0
7FC0
7F80
6000
6000
6000
6000
6000
6000
0000
0000
ENDCHAR
STARTCHAR uni0051
ENCODING 81
SWIDTH 666 0
DWIDTH 12 0
BBX 12 18 0 -2
BITMAP
0000
0000
1F80
3FC0
70E0
6060
6060
6060
6060
6060
6660
6760
63E0
71C0
3FE0
1E60
0000
0000
ENDCHAR
STARTCHAR uni0052
ENCODING 82
SWIDTH 666 0
DWIDTH 12 0
BBX 12 18 0 -2
BITMAP
0000
0000
7F80
7FC0
60E0
6060
6060
60E0
7FC0
7F80
6E00
6700
6380
61C0
60E0
6060
0000
0000
ENDCHAR
STARTCHAR uni0053
ENCODING 83
SWIDTH 666 0
DWIDTH 12 0
BBX 12 18 0 -2
BITMAP
0000
0000
1FE0
3FE0
7000
6000
6000
7000
3F80
1FC0
00E0
0060
0060
00E0
7FC0
7F80
0000
0000
ENDCHAR
STARTCHAR uni0054
ENCODING 84
SWIDTH 666 0
DWIDTH 12 0
BBX 12 18 0 -2
BITMAP
0000
0000
7FE0
7FE0
0600
0600
0600
0600
0600
0600
0600
0600
0600
0600
0600
0600
0000
0000
ENDCHAR
STARTCHAR uni0055
ENCODING 85
SWIDTH 666 0
DWIDTH 12 0
BBX 12 18 0 -2
BITMAP
0000
0000
6060
6060
6060
6060
6060
6060
6060
6060
6060
6060
6060
70E0
3FC0
1F80
0000
0000
ENDCHAR
STARTCHAR uni0056
ENCODING 86
SWIDTH 666 0
DWIDTH 12 0
BBX 12 18 0 -2
BITMAP
0000
0000
6060
6060
6060
6060
6060
6060
6060
6060
6060
70E0
39C0
1F80
0F00
0600
0000
0000
ENDCHAR
STARTCHAR uni0057
ENCODING 87
SWIDTH 666 0
DWIDTH 12 0
BBX 12 18 0 -2
BITMAP
0000
0000
6060
6060
6060
6060
6060
6060
6060
6660
6F60
7FE0
79E0
70E0
6060
6060
0000
0000
ENDCHAR
STARTCHAR uni0058
ENCODING 88
SWIDTH 666 0
DWIDTH 12 0
BBX 12 18 0 -2
BITMAP
0000
0000
6060
6060
6060
70E0
39C0
1F80
0F00
0F00
1F80
39C0
70E0
6060
6060
6060
0000
0000
ENDCHAR
STARTCHAR uni0059
ENCODING 89
SWIDTH 666 0
DWIDTH 12 0
BBX 12 18 0 -2
BITMAP
0000
0000
6060
6060
6060
6060
70E0
39C0
1F80
0F00
0600
0600
0600
0600
0600
0600
0000
0000
ENDCHAR
STARTCHAR uni005a
ENCODING 90
SWIDTH 666 0
DWIDTH 12 0
BBX 12 18 0 -2
BITMAP
0000
0000
7FE0
7FE0
0060
00E0
01C0
0380
0700
0E00
1C00
3800
7000
6000
7FE0
7FE0
0000
0000
ENDCHAR
STARTCHAR uni003a
ENCODING 58
SWIDTH 666 0
DWIDTH 12 0
BBX 12 18 0 -2
BITMAP
0000
0000
0000
0000
0600
0600
0000
0000
0000
0000
0000
0000
0600
0600
0000
0000
0000
0000
ENDCHAR
STARTCHAR uni002e
ENCODING 46
SWIDTH 666 0
DWIDTH 12 0
BBX 12 18 0 -2
BITMAP
0000
0000
0000
0000
0000
0000
0000
0000
0000
0000
0000
0000
0000
0000
6000
6000
0000
0000
ENDCHAR
STARTCHAR uni002f
ENCODING 47
SWIDTH 666 0
DWIDTH 12 0
BBX 12 18 0 -2
BITMAP
0000
0000
0000
0000
0060
00E0
01C0
0380
0700
0E00
1C00
3800
7000
6000
0000
0000
0000
0000
ENDCHAR
STARTCHAR uni0027
ENCODING 39
SWIDTH 666 0
DWIDTH 12 0
BBX 12 18 0 -2
BITMAP
0000
0000
0600
0600
0200
0400
0000
0000
0000
0000
0000
0000
0000
0000
0000
0000
0000
0000
ENDCHAR
STARTCHAR uni0061
ENCODING 97
SWIDTH 666 0
DWIDTH 12 0
BBX 12 18 0 -2
BITMAP
0000
0000
0000
0000
0000
0000
1F00
3F80
31C0
00C0
1FC0
3FC0
70C0
60C0
7FE0
3F60
0000
0000
ENDCHAR
STARTCHAR uni0062
ENCODING 98
SWIDTH 666 0
DWIDTH 12 0
BBX 12 18 0 -2
BITMAP
0000
0000
6000
6000
6000
6000
6F80
7FC0
70E0
6060
6060
6060
6060
60E0
7FC0
7F80
0000
0000
ENDCHAR
STARTCHAR uni0063
ENCODING 99
SWIDTH 666 0
DWIDTH 12 0
BBX 12 18 0 -2
BITMAP
0000
0000
0000
0000
0000
0000
1F80
3FC0
70E0
6000
6000
6000
6000
70E0
3FC0
1F80
0000
0000
ENDCHAR
STARTCHAR uni0064
ENCODING 100
SWIDTH 666 0
DWIDTH 12 0
BBX 12 18 0 -2
BITMAP
0000
0000
00C0
00C0
00C0
00C0
1FC0
3FC0
30C0
60C0
60C0
60C0
60C0
30C0
3FE0
1FE0
0000
0000
ENDCHAR
STARTCHAR uni0065
ENCODING 101
SWIDTH 666 0
DWIDTH 12 0
BBX 12 18 0 -2
BITMAP
0000
0000
0000
0000
0000
0000
1F80
3FC0
70E0
6060
7FE0
7FE0
6000
70E0
3FC0
1F80
0000
0000
ENDCHAR
STARTCHAR uni0066
ENCODING 102
SWIDTH 666 0
DWIDTH 12 0
BBX 12 18 0 -2
BITMAP
0000
0000
0780
0FC0
0CC0
0C00
0C00
3F00
3F00
0C00
0C00
0C00
0C00
0C00
0C00
0C00
0000
0000
ENDCHAR
STARTCHAR uni0067
ENCODING 103
SWIDTH 666 0
DWIDTH 12 0
BBX 12 18 0 -2
BITMAP
0000
0000
0000
0000
0000
0000
1F60
3FE0
70E0
6060
70E0
3FE0
1F60
0060
70E0
3FC0
1F80
0000
ENDCHAR
STARTCHAR uni0068
ENCODING 104
SWIDTH 666 0
DWIDTH 12 0
BBX 12 18 0 -2
BITMAP
0000
0000
6000
6000
6000
6000
6780
6FC0
78E0
7060
6060
6060
6060
6060
6060
6060
0000
0000
ENDCHAR
STARTCHAR uni0069
ENCODING 105
SWIDTH 666 0
DWIDTH 12 0
BBX 12 18 0 -2
BITMAP
0000
0000
0600
0600
0000
0000
0E00
0600
0600
0600
0600
0600
0600
0600
0600
1F80
0000
0000
ENDCHAR
STARTCHAR uni006a
ENCODING 106
SWIDTH 666 0
DWIDTH 12 0
BBX 12 18 0 -2
BITMAP
0000
0000
0180
0180
0000
0000
0380
0180
0180
0180
0180
0180
0180
3180
3B80
1F00
0E00
0000
ENDCHAR
STARTCHAR uni006b
ENCODING 107
SWIDTH 666 0
DWIDTH 12 0
BBX 12 18 0 -2
BITMAP
0000
0000
6000
6000
6000
6000
6060
60E0
61C0
6380
6700
6F00
7F80
79C0
60E0
6060
0000
0000
ENDCHAR
STARTCHAR uni006c
ENCODING 108
SWIDTH 666 0
DWIDTH 12 0
BBX 12 18 0 -2
BITMAP
0000
0000
0E00
0600
0600
0600
0600
0600
0600
0600
0600
0600
0600
0680
0780
0300
0000
0000
ENDCHAR
STARTCHAR uni006d
ENCODING 109
SWIDTH 666 0
DWIDTH 12 0
BBX 12 18 0 -2
BITMAP
0000
0000
0000
0000
0000
0000
6DC0
76C0
6660
6660
6660
6660
6660
6660
6660
6660
0000
0000
ENDCHAR
STARTCHAR uni006e
ENCODING 110
SWIDTH 666 0
DWIDTH 12 0
BBX 12 18 0 -2
BITMAP
0000
0000
0000
0000
0000
0000
6F80
7FC0
70E0
7060
6060
6060
6060
6060
6060
6060
0000
0000
ENDCHAR
STARTCHAR uni006f
ENCODING 111
SWIDTH 666 0
DWIDTH 12 0
BBX 12 18 0 -2
BITMAP
0000
0000
0000
0000
0000
0000
1F80
3FC0
70E0
6060
6060
6060
6060
70E0
3FC0
1F80
0000
0000
ENDCHAR
STARTCHAR uni0070
ENCODING 112
SWIDTH 666 0
DWIDTH 12 0
BBX 12 18 0 -2
BITMAP
0000
0000
0000
0000
0000
0000
6F80
7FC0
70E0
6060
6060
70E0
7FC0
6F80
6000
6000
6000
0000
ENDCHAR
STARTCHAR uni0071
ENCODING 113
SWIDTH 666 0
DWIDTH 12 0
BBX 12 18 0 -2
BITMAP
0000
0000
0000
0000
0000
0000
1F60
3FE0
70E0
6060
6060
70E0
3FE0
1F60
0060
0060
0060
0000
ENDCHAR
STARTCHAR uni0072
ENCODING 114
SWIDTH 666 0
DWIDTH 12 0
BBX 12 18 0 -2
BITMAP
0000
0000
0000
0000
0000
0000
6F80
7FC0
78E0
7060
6000
6000
6000
6000
6000
6000
0000
0000
ENDCHAR
STARTCHAR uni0073
ENCODING 115
SWIDTH 666 0
DWIDTH 12 0
BBX 12 18 0 -2
BITMAP
0000
0000
0000
0000
0000
0000
1F80
3FC0
70E0
7000
3F80
3FC0
00E0
70E0
3FC0
1F80
0000
0000
ENDCHAR
STARTCHAR uni0074
ENCODING 116
SWIDTH 666 0
DWIDTH 12 0
BBX 12 18 0 -2
BITMAP
0000
0000
0600
0600
0600
0600
1F80
1F80
0600
0600
0600
0600
0600
0600
0780
0380
0000
0000
ENDCHAR
STARTCHAR uni0075
ENCODING 117
SWIDTH 666 0
DWIDTH 12 0
BBX 12 18 0 -2
BITMAP
0000
0000
0000
0000
0000
0000
6060
6060
6060
6060
6060
6060
6060
70E0
3FE0
1F60
0000
0000
ENDCHAR
STARTCHAR uni0076
ENCODING 118
SWIDTH 666 0
DWIDTH 12 0
BBX 12 18 0 -2
BITMAP
0000
0000
0000
0000
0000
0000
6060
6060
6060
6060
6060
70E0
39C0
1F80
0F00
0600
0000
0000
ENDCHAR
STARTCHAR uni0077
ENCODING 119
SWIDTH 666 0
DWIDTH 12 0
BBX 12 18 0 -2
BITMAP
0000
0000
0000
0000
0000
0000
6060
6060
6660
6660
6660
6660
6F60
7FE0
39C0
1080
0000
0000
ENDCHAR
STARTCHAR uni0078
ENCODING 120
SWIDTH 666 0
DWIDTH 12 0
BBX 12 18 0 -2
BITMAP
0000
0000
0000
0000
0000
0000
6060
70E0
39C0
1F80
0F00
0F00
1F80
39C0
70E0
6060
0000
0000
ENDCHAR
STARTCHAR uni0079
ENCODING 121
SWIDTH 666 0
DWIDTH 12 0
BBX 12 18 0 -2
BITMAP
0000
0000
0000
0000
0000
0000
6060
6060
6060
6060
7060
3FE0
1FE0
0060
00E0
1FC0
1F80
0000
ENDCHAR
STARTCHAR uni007a
ENCODING 122
SWIDTH 666 0
DWIDTH 12 0
BBX 12 18 0 -2
BITMAP
0000
0000
0000
0000
0000
0000
7FE0
7FE0
01C0
0380
0700
0E00
1C00
3800
7FE0
7FE0
0000
0000
ENDCHAR
STARTCHAR uni00e0
ENCODING 224
SWIDTH 666 0
DWIDTH 12 0
BBX 12 18 0 -2
BITMAP
0000
0000
0000
0C00
0600
0000
1F00
3F80
31C0
00C0
1FC0
3FC0
70C0
60C0
7FE0
3F60
0000
0000
ENDCHAR
STARTCHAR uni00e2
ENCODING 226
SWIDTH 666 0
DWIDTH 12 0
BBX 12 18 0 -2
BITMAP
0000
0000
0000
0E00
1B00
0000
1F00
3F80
31C0
00C0
1FC0
3FC0
70C0
60C0
7FE0
3F60
0000
0000
ENDCHAR
STARTCHAR uni00e4
ENCODING 228
SWIDTH 666 0
DWIDTH 12 0
BBX 12 18 0 -2
BITMAP
0000
0000
0000
0000
1B00
0000
1F00
3F80
31C0
00C0
1FC0
3FC0
70C0
60C0
7FE0
3F60
0000
0000
ENDCHAR
STARTCHAR uni00e1
ENCODING 225
SWIDTH 666 0
DWIDTH 12 0
BBX 12 18 0 -2
BITMAP
0000
0000
0000
0600
0C00
0000
1F00
3F80
31C0
00C0
1FC0
3FC0
70C0
60C0
7FE0
3F60
0000
0000
ENDCHAR
STARTCHAR uni00e9
ENCODING 233
SWIDTH 666 0
DWIDTH 12 0
BBX 12 18 0 -2
BITMAP
0000
0000
0000
0300
0600
0000
1F80
3FC0
70E0
6060
7FE0
7FE0
6000
70E0
3FC0
1F80
0000
0000
ENDCHAR
STARTCHAR uni00e8
ENCODING 232
SWIDTH 666 0
DWIDTH 12 0
BBX 12 18 0 -2
BITMAP
0000
0000
0000
0600
0300
0000
1F80
3FC0
70E0
6060
7FE0
7FE0
6000
70E0
3FC0
1F80
0000
0000
ENDCHAR
STARTCHAR uni00eb
ENCODING 235
SWIDTH 666 0
DWIDTH 12 0
BBX 12 18 0 -2
BITMAP
0000
0000
0000
0000
1980
0000
1F80
3FC0
70E0
6060
7FE0
7FE0
6000
70E0
3FC0
1F80
0000
0000
ENDCHAR
STARTCHAR uni00ea
ENCODING 234
SWIDTH 666 0
DWIDTH 12 0
BBX 12 18 0 -2
BITMAP
0000
0000
0000
0E00
1B00
0000
1F80
3FC0
70E0
6060
7FE0
7FE0
6000
70E0
3FC0
1F80
0000
0000
ENDCHAR
STARTCHAR uni00ec
ENCODING 236
SWIDTH 666 0
DWIDTH 12 0
BBX 12 18 0 -2
BITMAP
0000
0000
0000
0C00
0600
0000
0E00
0600
0600
0600
0600
0600
0600
0600
0600
1F80
0000
0000
ENDCHAR
STARTCHAR uni00ee
ENCODING 238
SWIDTH 666 0
DWIDTH 12 0
BBX 12 18 0 -2
BITMAP
0000
0000
0000
0E00
1B00
0000
0E00
0600
0600
0600
0600
0600
0600
0600
0600
1F80
0000
0000
ENDCHAR
STARTCHAR uni00ef
ENCODING 239
SWIDTH 666 0
DWIDTH 12 0
BBX 12 18 0 -2
BITMAP
0000
0000
0000
0000
1B00
0000
0E00
0600
0600
0600
0600
0600
0600
0600
0600
1F80
0000
0000
ENDCHAR
STARTCHAR uni00ed
ENCODING 237
SWIDTH 666 0
DWIDTH 12 0
BBX 12 18 0 -2
BITMAP
0000
0000
0000
0300
0600
0000
0E00
0600
0600
0600
0600
0600
0600
0600
0600
1F80
0000
0000
ENDCHAR
STARTCHAR uni00f2
ENCODING 242
SWIDTH 666 0
DWIDTH 12 0
BBX 12 18 0 -2
BITMAP
0000
0000
0000
0600
0300
0000
1F80
3FC0
70E0
6060
6060
6060
6060
70E0
3FC0
1F80
0000
0000
ENDCHAR
STARTCHAR uni00f4
ENCODING 244
SWIDTH 666 0
DWIDTH 12 0
BBX 12 18 0 -2
BITMAP
0000
0000
0000
0E00
1B00
0000
1F80
3FC0
70E0
6060
6060
6060
6060
70E0
3FC0
1F80
0000
0000
ENDCHAR
STARTCHAR uni00f6
ENCODING 246
SWIDTH 666 0
DWIDTH 12 0
BBX 12 18 0 -2
BITMAP
0000
0000
0000
0000
1980
0000
1F80
3FC0
70E0
6060
6060
6060
6060
70E0
3FC0
1F80
0000
0000
ENDCHAR
STARTCHAR uni00f3
ENCODING 243
SWIDTH 666 0
DWIDTH 12 0
BBX 12 18 0 -2
BITMAP
0000
0000
0000
0300
0600
0000
1F80
3FC0
70E0
6060
6060
6060
6060
70E0
3FC0
1F80
0000
0000
ENDCHAR
STARTCHAR uni00f9
ENCODING 249
SWIDTH 666 0
DWIDTH 12 0
BBX 12 18 0 -2
BITMAP
0000
0000
0000
0600
0300
0000
6060
6060
6060
6060
6060
6060
6060
70E0
3FE0
1F60
0000
0000
ENDCHAR
STARTCHAR uni00fb
ENCODING 251
SWIDTH 666 0
DWIDTH 12 0
BBX 12 18 0 -2
BITMAP
0000
0000
0000
0E00
1B00
0000
6060
6060
6060
6060
6060
6060
6060
70E0
3FE0
1F60
0000
0000
ENDCHAR
STARTCHAR uni00fc
ENCODING 252
SWIDTH 666 0
DWIDTH 12 0
BBX 12 18 0 -2
BITMAP
0000
0000
0000
0000
30C0
0000
6060
6060
6060
6060
6060
6060
6060
70E0
3FE0
1F60
0000
0000
ENDCHAR
STARTCHAR uni00fa
ENCODING 250
SWIDTH 666 0
DWIDTH 12 0
BBX 12 18 0 -2
BITMAP
0000
0000
0000
0600
0C00
0000
6060
6060
6060
6060
6060
6060
6060
70E0
3FE0
1F60
0000
0000
ENDCHAR
STARTCHAR uni00c4
ENCODING 196
SWIDTH 666 0
DWIDTH 12 0
BBX 12 18 0 -2
BITMAP
30C0
0000
0600
0F00
1F80
39C0
70E0
6060
6060
6060
7FE0
7FE0
6060
6060
6060
6060
0000
0000
ENDCHAR
STARTCHAR uni00d6
ENCODING 214
SWIDTH 666 0
DWIDTH 12 0
BBX 12 18 0 -2
BITMAP
30C0
0000
1F80
3FC0
70E0
6060
6060
6060
6060
6060
6060
6060
6060
70E0
3FC0
1F80
0000
0000
ENDCHAR
STARTCHAR uni00dc
ENCODING 220
SWIDTH 666 0
DWIDTH 12 0
BBX 12 18 0 -2
BITMAP
30C0
0000
6060
6060
6060
6060
6060
6060
6060
6060
6060
6060
6060
70E0
3FC0
1F80
0000
0000
ENDCHAR
STARTCHAR uni00e7
ENCODING 231
SWIDTH 666 0
DWIDTH 12 0
BBX 12 18 0 -2
BITMAP
0000
0000
0000
0000
0000
0000
1F80
3FC0
70E0
6000
6000
6000
70E0
3FC0
1F80
0600
1C00
0000
ENDCHAR
STARTCHAR uni00df
ENCODING 223
SWIDTH 666 0
DWIDTH 12 0
BBX 12 18 0 -2
BITMAP
0000
0000
0F80
1FC0
38C0
30C0
30C0
30C0
3380
3380
3060
3060
3060
3060
33C0
33C0
3000
0000
ENDCHAR
STARTCHAR uni00f1
ENCODING 241
SWIDTH 666 0
DWIDTH 12 0
BBX 12 18 0 -2
BITMAP
0000
0000
0000
3CE0
6780
0000
6F80
7FC0
70E0
7060
6060
6060
6060
6060
6060
6060
0000
0000
ENDCHAR
STARTCHAR uni002b
ENCODING 43
SWIDTH 666 0
DWIDTH 12 0
BBX 12 18 0 -2
BITMAP
0000
0000
0000
0000
0000
0600
0600
0600
3FC0
3FC0
0600
0600
0600
0000
0000
0000
0000
0000
ENDCHAR
STARTCHAR uni002a
ENCODING 42
SWIDTH 666 0
DWIDTH 12 0
BBX 12 18 0 -2
BITMAP
0000
0000
0000
0600
6660
76E0
3FC0
1F80
0F00
0F00
1F80
3FC0
76E0
6660
0600
0000
0000
0000
ENDCHAR
STARTCHAR uni23f5
ENCODING 9205
SWIDTH 666 0
DWIDTH 12 0
BBX 12 18 0 -2
BITMAP
0000
0000
0000
1000
1800
1C00
1E00
1F00
1F80
1FC0
1F80
1F00
1E00
1C00
1800
1000
0000
0000
ENDCHAR
STARTCHAR uni23e9
ENCODING 9193
SWIDTH 666 0
DWIDTH 12 0
BBX 12 18 0 -2
BITMAP
0000
0000
0000
8400
C600
E700
F780
FFC0
FFE0
FFF0
FFE0
FFC0
F780
E700
C600
8400
0000
0000
ENDCHAR
STARTCHAR uni23ea
ENCODING 9194
SWIDTH 666 0
DWIDTH 12 0
BBX 12 18 0 -2
BITMAP
0000
0000
0000
0210
0630
0E70
1EF0
3FF0
7FF0
FFF0
7FF0
3FF0
1EF0
0E70
0630
0210
0000
0000
ENDCHAR
STARTCHAR uni23f9
ENCODING 9209
SWIDTH 666 0
DWIDTH 12 0
BBX 12 18 0 -2
BITMAP
0000
0000
0000
7FE0
7FE0
7FE0
7FE0
7FE0
7FE0
7FE0
7FE0
7FE0
7FE0
7FE0
7FE0
7FE0
0000
0000
ENDCHAR
STARTCHAR uni2500
ENCODING 9472
SWIDTH 666 0
DWIDTH 12 0
BBX 12 18 0 -2
BITMAP
0000
0000
0000
0000
0000
0000
0000
0000
FFF0
FFF0
0000
0000
0000
0000
0000
0000
0000
0000
ENDCHAR
STARTCHAR unif000
ENCODING 61440
SWIDTH 666 0
DWIDTH 12 0
BBX 12 18 0 -2
BITMAP
0000
0000
0000
0000
0000
E000
E000
E000
FFF0
FFF0
E000
E000
E000
0000
0000
0000
0000
0000
ENDCHAR
STARTCHAR unif001
ENCODING 61441
SWIDTH 666 0
DWIDTH 12 0
BBX 12 18 0 -2
BITMAP
0000
0000
0000
0000
0000
1C00
1C00
1C00
FFF0
FFF0
1C00
1C00
1C00
0000
0000
0000
0000
0000
ENDCHAR
STARTCHAR unif002
ENCODING 61442
SWIDTH 666 0
DWIDTH 12 0
BBX 12 18 0 -2
BITMAP
0000
0000
0000
0000
0000
0380
0380
0380
FFF0
FFF0
0380
0380
0380
0000
0000
0000
0000
0000
ENDCHAR
STARTCHAR unif003
ENCODING 61443
SWIDTH 666 0
DWIDTH 12 0
BBX 12 18 0 -2
BITMAP
0000
0000
0000
0000
0000
0070
0070
0070
FFF0
FFF0
0070
0070
0070
0000
0000
0000
0000
0000
ENDCHAR
STARTCHAR uni00c5
ENCODING 197
SWIDTH 666 0
DWIDTH 12 0
BBX 12 18 0 -2
BITMAP
0600
0600
0F00
1F80
39C0
70E0
6060
6060
6060
6060
7FE0
7FE0
6060
6060
6060
6060
0000
0000
ENDCHAR
STARTCHAR uni00e5
ENCODING 229
SWIDTH 666 0
DWIDTH 12 0
BBX 12 18 0 -2
BITMAP
0000
0000
0600
0900
0600
0000
1F00
3F80
31C0
00C0
1FC0
3FC0
70C0
60C0
7FE0
3F60
0000
0000
ENDCHAR
STARTCHAR uni00c9
ENCODING 201
SWIDTH 666 0
DWIDTH 12 0
BBX 12 18 0 -2
BITMAP
0600
0C00
7FE0
7FE0
6000
6000
6000
6000
7F80
7F80
6000
6000
6000
6000
7FE0
7FE0
0000
0000
ENDCHAR
STARTCHAR uni2386
ENCODING 9094
SWIDTH 666 0
DWIDTH 12 0
BBX 12 18 0 -2
BITMAP
0000
0000
0000
0600
0900
1080
2440
0620
FF10
FF10
0620
2440
1080
0900
0600
0000
0000
0000
ENDCHAR
STARTCHAR uni00d1
ENCODING 209
SWIDTH 666 0
DWIDTH 12 0
BBX 12 18 0 -2
BITMAP
3CE0
6780
6060
6060
6060
7060
7860
7C60
6E60
6760
63E0
61E0
60E0
6060
6060
6060
0000
0000
ENDCHAR
STARTCHAR U+1f4e1
ENCODING 128225
SWIDTH 666 0
DWIDTH 12 0
BBX 12 18 0 -2
BITMAP
7000
8C00
8240
8180
C180
C240
6420
7020
3810
3C10
0F10
0BE0
0800
0800
1C00
3E00
7F00
FF80
ENDCHAR
STARTCHAR unif004
ENCODING 61444
SWIDTH 666 0
DWIDTH 12 0
BBX 12 18 0 -2
BITMAP
0000
0000
0000
0000
0000
0000
FBE0
FBE0
0A00
0A00
0A00
0A00
0000
0000
0000
0000
0000
0000
ENDCHAR
STARTCHAR uni003f
ENCODING 63
SWIDTH 666 0
DWIDTH 12 0
BBX 12 18 0 -2
BITMAP
0000
0F00
1F80
30C0
6060
6060
6060
00C0
0180
0700
0600
0600
0600
0000
0600
0600
0000
0000
ENDCHAR
STARTCHAR uni2661
ENCODING 9825
SWIDTH 666 0
DWIDTH 12 0
BBX 12 18 0 -2
BITMAP
0000
0000
0000
3180
4A40
8420
8020
8020
4040
4040
2080
1100
0E00
0400
0000
0000
0000
0000
ENDCHAR
STARTCHAR uni2581
ENCODING 9601
SWIDTH 666 0
DWIDTH 12 0
BBX 12 18 0 -2
BITMAP
0000
0000
0000
0000
0000
0000
0000
0000
0000
0000
0000
0000
0000
0000
0000
FFF0
FFF0
FFF0
ENDCHAR
STARTCHAR uni2582
ENCODING 9602
SWIDTH 666 0
DWIDTH 12 0
BBX 12 18 0 -2
BITMAP
0000
0000
0000
0000
0000
0000
0000
0000
0000
0000
0000
0000
FFF0
FFF0
FFF0
FFF0
FFF0
FFF0
ENDCHAR
STARTCHAR uni2584
ENCODING 9604
SWIDTH 666 0
DWIDTH 12 0
BBX 12 18 0 -2
BITMAP
0000
0000
0000
0000
0000
0000
0000
0000
0000
FFF0
FFF0
FFF0
FFF0
FFF0
FFF0
FFF0
FFF0
FFF0
ENDCHAR
STARTCHAR uni2585
ENCODING 9605
SWIDTH 666 0
DWIDTH 12 0
BBX 12 18 0 -2
BITMAP
0000
0000
0000
0000
0000
0000
FFF0
FFF0
FFF0
FFF0
FFF0
FFF0
FFF0
FFF0
FFF0
FFF0
FFF0
FFF0
ENDCHAR
STARTCHAR uni2587
ENCODING 9607
SWIDTH 666 0
DWIDTH 12 0
BBX 12 18 0 -2
BITMAP
0000
0000
0000
FFF0
FFF0
FFF0
FFF0
FFF0
FFF0
FFF0
FFF0
FFF0
FFF0
FFF0
FFF0
FFF0
FFF0
FFF0
ENDCHAR
STARTCHAR uni2588
ENCODING 9608
SWIDTH 666 0
DWIDTH 12 0
BBX 12 18 0 -2
BITMAP
FFF0
FFF0
FFF0
FFF0
FFF0
FFF0
FFF0
FFF0
FFF0
FFF0
FFF0
FFF0
FFF0
FFF0
FFF0
FFF0
FFF0
FFF0
ENDCHAR
STARTCHAR uni003d
ENCODING 61
SWIDTH 666 0
DWIDTH 12 0
BBX 12 18 0 -2
BITMAP
0000
0000
0000
0000
0000
0000
1F80
1F80
0000
0000
1F80
1F80
0000
0000
0000
0000
0000
0000
ENDCHAR
STARTCHAR U+1d11e
ENCODING 119070
SWIDTH 666 0
DWIDTH 12 0
BBX 12 18 0 -2
BITMAP
0000
0000
0200
0500
0480
0480
0500
0600
0C00
1400
2700
4480
4440
2480
1F00
0400
0000
0000
ENDCHAR
STARTCHAR uni2192
ENCODING 8594
SWIDTH 666 0
DWIDTH 12 0
BBX 12 18 0 -2
BITMAP
0000
0000
0000
0000
0000
0100
0180
01C0
7FE0
7FE0
01C0
0180
0100
0000
0000
0000
0000
0000
ENDCHAR
STARTCHAR uni2190
ENCODING 8592
SWIDTH 666 0
DWIDTH 12 0
BBX 12 18 0 -2
BITMAP
0000
0000
0000
0000
0000
0800
1800
3800
7FE0
7FE0
3800
1800
0800
0000
0000
0000
0000
0000
ENDCHAR
STARTCHAR uni2191
ENCODING 8593
SWIDTH 666 0
DWIDTH 12 0
BBX 12 18 0 -2
BITMAP
0000
0600
0F00
1F80
3FC0
0600
0600
0600
0600
0600
0600
0600
0600
0600
0600
0600
0000
0000
ENDCHAR
STARTCHAR uni2193
ENCODING 8595
SWIDTH 666 0
DWIDTH 12 0
BBX 12 18 0 -2
BITMAP
0000
0000
0600
0600
0600
0600
0600
0600
0600
0600
0600
0600
0600
3FC0
1F80
0F00
0600
0000
ENDCHAR
STARTCHAR U+1f511
ENCODING 128273
SWIDTH 666 0
DWIDTH 12 0
BBX 12 18 0 -2
BITMAP
0000
0780
0CC0
0CC0
0FC0
0780
0300
0300
0300
0300
0300
1F00
0300
1F00
1F00
0300
0000
0000
ENDCHAR
STARTCHAR U+1f558
ENCODING 128344
SWIDTH 666 0
DWIDTH 12 0
BBX 12 18 0 -2
BITMAP
0000
0000
0000
0600
1980
2240
4220
4220
8210
9E10
4020
4020
2040
1980
0600
0000
0000
0000
ENDCHAR
ENDFONT
